<svg width="15" height="15" viewBox="0 0 15 15" fill="none" xmlns="http://www.w3.org/2000/svg">
<path fill-rule="evenodd" clip-rule="evenodd" d="M1.79166 5.74999C1.79166 3.56386 3.56386 1.79166 5.74999 1.79166C7.93612 1.79166 9.70832 3.56386 9.70832 5.74999C9.70832 7.93612 7.93612 9.70832 5.74999 9.70832C3.56386 9.70832 1.79166 7.93612 1.79166 5.74999ZM5.74999 0.541656C2.87351 0.541656 0.541656 2.87351 0.541656 5.74999C0.541656 8.62647 2.87351 10.9583 5.74999 10.9583C6.96796 10.9583 8.08828 10.5403 8.97528 9.83979C8.99875 9.87595 9.02634 9.91022 9.05805 9.94193L13.2247 14.1086C13.4688 14.3527 13.8645 14.3527 14.1086 14.1086C14.3527 13.8645 14.3527 13.4688 14.1086 13.2247L9.94193 9.05805C9.91022 9.02634 9.87595 8.99875 9.83979 8.97528C10.5403 8.08828 10.9583 6.96796 10.9583 5.74999C10.9583 2.87351 8.62647 0.541656 5.74999 0.541656Z" fill="#1D2433" fill-opacity="0.5"/>
</svg>
